<?xml version="1.0" encoding="iso-8859-1"?>
<!-- Generator: Adobe Illustrator 19.0.0, SVG Export Plug-In . SVG Version: 6.00 Build 0)  -->
<svg version="1.1" id="Layer_1" xmlns="http://www.w3.org/2000/svg" xmlns:xlink="http://www.w3.org/1999/xlink" x="0px" y="0px"
	 viewBox="0 0 300.988 300.988" style="enable-background:new 0 0 300.988 300.988;" xml:space="preserve">
<g>
	<g>
		<g>
			<path style="fill:#333333;" d="M0.414,300.988h300.16v-33.889H0.414V300.988z M10.097,276.781h280.795v14.524H10.097V276.781z"/>
			<path style="fill:#333333;" d="M297.049,68.606l-82.302-48.413h-31.086L150.494,0l-33.172,20.193H86.235L3.938,68.606H0.414
				v33.889h300.16V68.606H297.049z M212.114,29.876l65.841,38.73h-14.756l-63.629-38.73
				C199.57,29.876,212.114,29.876,212.114,29.876z M88.874,29.876h12.539l-63.624,38.73H23.032L88.874,29.876z M290.891,92.812
				H10.097V78.288h116.191v-9.683h-69.88l94.086-57.268l94.086,57.268H174.7v9.683h116.191V92.812z"/>
			<path style="fill:#333333;" d="M10.097,238.051v24.206h58.095v-24.206H53.668V131.543h14.524v-24.206H10.097v24.206H24.62
				v106.508H10.097z M58.509,247.733v4.841h-38.73v-4.841h4.841h29.048H58.509z M19.779,121.86v-4.841h38.73v4.841h-4.841H24.62
				H19.779z M34.303,131.543h9.683v106.508h-9.683V131.543z"/>
			<path style="fill:#333333;" d="M82.716,238.051v24.206h58.095v-24.206h-14.524V131.543h14.524v-24.206H82.716v24.206H97.24
				v106.508H82.716z M131.129,247.733v4.841h-38.73v-4.841h4.841h29.048H131.129z M92.398,121.86v-4.841h38.73v4.841h-4.841H97.24
				H92.398z M106.922,131.543h9.683v106.508h-9.683V131.543z"/>
			<path style="fill:#333333;" d="M160.176,238.051v24.206h58.095v-24.206h-14.524V131.543h14.524v-24.206h-58.095v24.206H174.7
				v106.508H160.176z M208.589,247.733v4.841h-38.73v-4.841h4.841h29.048H208.589z M169.859,121.86v-4.841h38.73v4.841h-4.841H174.7
				H169.859z M184.383,131.543h9.683v106.508h-9.683V131.543z"/>
			<path style="fill:#333333;" d="M232.796,238.051v24.206h58.095v-24.206h-14.524V131.543h14.524v-24.206h-58.095v24.206h14.524
				v106.508H232.796z M281.208,247.733v4.841h-38.73v-4.841h4.841h29.048H281.208z M242.478,121.86v-4.841h38.73v4.841h-4.841
				h-29.048H242.478z M257.002,131.543h9.683v106.508h-9.683V131.543z"/>
		</g>
		<g>
			<g>
				<path style="fill:#F9BA48;" d="M150.494,92.812c-18.683,0-33.889-15.206-33.889-33.889s15.206-33.889,33.889-33.889
					s33.889,15.206,33.889,33.889S169.176,92.812,150.494,92.812z"/>
			</g>
		</g>
	</g>
</g>
<g>
</g>
<g>
</g>
<g>
</g>
<g>
</g>
<g>
</g>
<g>
</g>
<g>
</g>
<g>
</g>
<g>
</g>
<g>
</g>
<g>
</g>
<g>
</g>
<g>
</g>
<g>
</g>
<g>
</g>
</svg>
